<svg width="1280" height="832" viewBox="0 0 1280 832" fill="none" xmlns="http://www.w3.org/2000/svg">
<rect width="1280" height="832" fill="#2A2929"/>
<path d="M571.2 468L620 393L571.6 319H602.8L642.4 379.6H628L667.4 319H698.6L650.4 393L699 468H667.8L628 406.6H642.4L602.4 468H571.2Z" fill="#24AE7C" fill-opacity="0.63"/>
<g filter="url(#filter0_d_1_2)">
<path d="M401.912 418V346.48H414.392L441.176 382.864H435.224L461.432 346.48H473.912V418H460.76V361.36L465.848 362.608L438.68 398.8H437.144L410.648 362.608L414.968 361.36V418H401.912ZM511.312 419.152C505.936 419.152 501.232 417.936 497.2 415.504C493.168 413.072 490.032 409.776 487.792 405.616C485.552 401.456 484.432 396.848 484.432 391.792C484.432 386.544 485.552 381.904 487.792 377.872C490.096 373.776 493.2 370.544 497.104 368.176C501.072 365.808 505.488 364.624 510.352 364.624C514.448 364.624 518.032 365.296 521.104 366.64C524.24 367.984 526.896 369.84 529.072 372.208C531.248 374.576 532.912 377.296 534.064 380.368C535.216 383.376 535.792 386.64 535.792 390.16C535.792 391.056 535.728 391.984 535.6 392.944C535.536 393.904 535.376 394.736 535.12 395.44H494.799V385.84H528.016L522.064 390.352C522.64 387.408 522.48 384.784 521.584 382.48C520.752 380.176 519.344 378.352 517.36 377.008C515.44 375.664 513.104 374.992 510.352 374.992C507.728 374.992 505.392 375.664 503.344 377.008C501.296 378.288 499.728 380.208 498.64 382.768C497.616 385.264 497.232 388.304 497.488 391.888C497.232 395.088 497.648 397.936 498.736 400.432C499.888 402.864 501.552 404.752 503.728 406.096C505.968 407.44 508.528 408.112 511.408 408.112C514.288 408.112 516.72 407.504 518.704 406.288C520.752 405.072 522.352 403.44 523.504 401.392L533.68 406.384C532.656 408.88 531.056 411.088 528.88 413.008C526.704 414.928 524.112 416.432 521.104 417.52C518.16 418.608 514.896 419.152 511.312 419.152ZM569.613 419.152C564.557 419.152 560.045 417.968 556.077 415.6C552.109 413.168 548.973 409.872 546.669 405.712C544.365 401.552 543.213 396.944 543.213 391.888C543.213 386.768 544.365 382.16 546.669 378.064C548.973 373.968 552.109 370.704 556.077 368.272C560.109 365.84 564.589 364.624 569.517 364.624C573.485 364.624 577.005 365.424 580.077 367.024C583.213 368.56 585.677 370.736 587.469 373.552L585.549 376.144V345.328H598.125V418H586.221V407.92L587.565 410.416C585.773 413.232 583.277 415.408 580.077 416.944C576.877 418.416 573.389 419.152 569.613 419.152ZM570.957 407.632C573.837 407.632 576.365 406.96 578.541 405.616C580.717 404.272 582.413 402.416 583.629 400.048C584.909 397.68 585.549 394.96 585.549 391.888C585.549 388.88 584.909 386.192 583.629 383.824C582.413 381.392 580.717 379.504 578.541 378.16C576.365 376.816 573.837 376.144 570.957 376.144C568.141 376.144 565.613 376.848 563.373 378.256C561.133 379.6 559.373 381.456 558.093 383.824C556.877 386.128 556.269 388.816 556.269 391.888C556.269 394.96 556.877 397.68 558.093 400.048C559.373 402.416 561.133 404.272 563.373 405.616C565.613 406.96 568.141 407.632 570.957 407.632ZM609.825 418V365.776H622.401V418H609.825ZM609.825 359.92V346.48H622.401V359.92H609.825ZM634.012 437.2V365.776H645.82V376.144L644.668 373.552C646.46 370.736 648.892 368.56 651.964 367.024C655.036 365.424 658.588 364.624 662.62 364.624C667.548 364.624 671.996 365.84 675.964 368.272C679.932 370.704 683.068 373.968 685.372 378.064C687.74 382.16 688.924 386.768 688.924 391.888C688.924 396.944 687.772 401.552 685.468 405.712C683.164 409.872 680.028 413.168 676.06 415.6C672.092 417.968 667.58 419.152 662.524 419.152C658.748 419.152 655.26 418.416 652.06 416.944C648.924 415.408 646.428 413.232 644.572 410.416L646.588 407.92V437.2H634.012ZM661.084 407.632C663.964 407.632 666.524 406.96 668.764 405.616C671.004 404.272 672.732 402.416 673.948 400.048C675.228 397.68 675.868 394.96 675.868 391.888C675.868 388.816 675.228 386.128 673.948 383.824C672.732 381.456 671.004 379.6 668.764 378.256C666.524 376.848 663.964 376.144 661.084 376.144C658.332 376.144 655.836 376.816 653.596 378.16C651.42 379.504 649.692 381.392 648.412 383.824C647.196 386.192 646.588 388.88 646.588 391.888C646.588 394.96 647.196 397.68 648.412 400.048C649.692 402.416 651.42 404.272 653.596 405.616C655.836 406.96 658.332 407.632 661.084 407.632ZM717.136 419.152C713.104 419.152 709.584 418.256 706.576 416.464C703.632 414.672 701.36 412.176 699.76 408.976C698.224 405.776 697.456 402.032 697.456 397.744V365.776H710.032V396.688C710.032 398.864 710.448 400.784 711.28 402.448C712.176 404.048 713.424 405.328 715.024 406.288C716.688 407.184 718.544 407.632 720.592 407.632C722.64 407.632 724.464 407.184 726.064 406.288C727.664 405.328 728.912 404.016 729.808 402.352C730.704 400.688 731.152 398.704 731.152 396.4V365.776H743.728V418H731.824V407.728L732.88 409.552C731.664 412.752 729.648 415.152 726.832 416.752C724.08 418.352 720.848 419.152 717.136 419.152ZM755.419 418V345.328H767.995V418H755.419ZM799.478 419.152C793.91 419.152 789.046 417.84 784.886 415.216C780.79 412.528 777.974 408.912 776.438 404.368L785.846 399.856C787.19 402.8 789.046 405.104 791.414 406.768C793.846 408.432 796.534 409.264 799.478 409.264C801.782 409.264 803.606 408.752 804.95 407.728C806.294 406.704 806.966 405.36 806.966 403.696C806.966 402.672 806.678 401.84 806.102 401.2C805.59 400.496 804.854 399.92 803.894 399.472C802.998 398.96 802.006 398.544 800.918 398.224L792.374 395.824C787.958 394.544 784.598 392.592 782.294 389.968C780.054 387.344 778.934 384.24 778.934 380.656C778.934 377.456 779.734 374.672 781.334 372.304C782.998 369.872 785.27 367.984 788.15 366.64C791.094 365.296 794.454 364.624 798.23 364.624C803.158 364.624 807.51 365.808 811.286 368.176C815.062 370.544 817.75 373.872 819.35 378.16L809.75 382.672C808.854 380.304 807.35 378.416 805.238 377.008C803.126 375.6 800.758 374.896 798.134 374.896C796.022 374.896 794.358 375.376 793.142 376.336C791.926 377.296 791.318 378.544 791.318 380.08C791.318 381.04 791.574 381.872 792.086 382.576C792.598 383.28 793.302 383.856 794.198 384.304C795.158 384.752 796.246 385.168 797.462 385.552L805.814 388.048C810.102 389.328 813.398 391.248 815.702 393.808C818.07 396.368 819.254 399.504 819.254 403.216C819.254 406.352 818.422 409.136 816.758 411.568C815.094 413.936 812.79 415.792 809.846 417.136C806.902 418.48 803.446 419.152 799.478 419.152ZM853.687 419.152C848.311 419.152 843.607 417.936 839.575 415.504C835.543 413.072 832.407 409.776 830.167 405.616C827.927 401.456 826.807 396.848 826.807 391.792C826.807 386.544 827.927 381.904 830.167 377.872C832.471 373.776 835.575 370.544 839.479 368.176C843.447 365.808 847.863 364.624 852.727 364.624C856.823 364.624 860.407 365.296 863.479 366.64C866.615 367.984 869.271 369.84 871.447 372.208C873.623 374.576 875.287 377.296 876.439 380.368C877.591 383.376 878.167 386.64 878.167 390.16C878.167 391.056 878.103 391.984 877.975 392.944C877.911 393.904 877.751 394.736 877.495 395.44H837.174V385.84H870.391L864.439 390.352C865.015 387.408 864.855 384.784 863.959 382.48C863.127 380.176 861.719 378.352 859.735 377.008C857.815 375.664 855.479 374.992 852.727 374.992C850.103 374.992 847.767 375.664 845.719 377.008C843.671 378.288 842.103 380.208 841.015 382.768C839.991 385.264 839.607 388.304 839.863 391.888C839.607 395.088 840.023 397.936 841.111 400.432C842.263 402.864 843.927 404.752 846.103 406.096C848.343 407.44 850.903 408.112 853.783 408.112C856.663 408.112 859.095 407.504 861.079 406.288C863.127 405.072 864.727 403.44 865.879 401.392L876.055 406.384C875.031 408.88 873.431 411.088 871.255 413.008C869.079 414.928 866.487 416.432 863.479 417.52C860.535 418.608 857.271 419.152 853.687 419.152Z" fill="white"/>
</g>
<path d="M1030.44 68V53.1H1035.98C1036.99 53.1 1037.89 53.2867 1038.66 53.66C1039.45 54.02 1040.06 54.5533 1040.5 55.26C1040.94 55.9533 1041.16 56.8 1041.16 57.8C1041.16 58.8267 1040.91 59.7 1040.42 60.42C1039.94 61.14 1039.29 61.6733 1038.46 62.02L1041.88 68H1038.8L1035.14 61.46L1036.9 62.5H1033.16V68H1030.44ZM1033.16 60.1H1036.02C1036.51 60.1 1036.94 60.0067 1037.3 59.82C1037.66 59.62 1037.94 59.3467 1038.14 59C1038.34 58.6533 1038.44 58.2533 1038.44 57.8C1038.44 57.3333 1038.34 56.9333 1038.14 56.6C1037.94 56.2533 1037.66 55.9867 1037.3 55.8C1036.94 55.6 1036.51 55.5 1036.02 55.5H1033.16V60.1ZM1048 68.24C1046.88 68.24 1045.9 67.9867 1045.06 67.48C1044.22 66.9733 1043.56 66.2867 1043.1 65.42C1042.63 64.5533 1042.4 63.5933 1042.4 62.54C1042.4 61.4467 1042.63 60.48 1043.1 59.64C1043.58 58.7867 1044.22 58.1133 1045.04 57.62C1045.86 57.1267 1046.78 56.88 1047.8 56.88C1048.65 56.88 1049.4 57.02 1050.04 57.3C1050.69 57.58 1051.24 57.9667 1051.7 58.46C1052.15 58.9533 1052.5 59.52 1052.74 60.16C1052.98 60.7867 1053.1 61.4667 1053.1 62.2C1053.1 62.3867 1053.08 62.58 1053.06 62.78C1053.04 62.98 1053.01 63.1533 1052.96 63.3H1044.56V61.3H1051.48L1050.24 62.24C1050.36 61.6267 1050.32 61.08 1050.14 60.6C1049.96 60.12 1049.67 59.74 1049.26 59.46C1048.86 59.18 1048.37 59.04 1047.8 59.04C1047.25 59.04 1046.76 59.18 1046.34 59.46C1045.91 59.7267 1045.58 60.1267 1045.36 60.66C1045.14 61.18 1045.06 61.8133 1045.12 62.56C1045.06 63.2267 1045.15 63.82 1045.38 64.34C1045.62 64.8467 1045.96 65.24 1046.42 65.52C1046.88 65.8 1047.42 65.94 1048.02 65.94C1048.62 65.94 1049.12 65.8133 1049.54 65.56C1049.96 65.3067 1050.3 64.9667 1050.54 64.54L1052.66 65.58C1052.44 66.1 1052.11 66.56 1051.66 66.96C1051.2 67.36 1050.66 67.6733 1050.04 67.9C1049.42 68.1267 1048.74 68.24 1048 68.24ZM1060.36 72.4C1059.55 72.4 1058.8 72.2667 1058.1 72C1057.41 71.7333 1056.81 71.36 1056.3 70.88C1055.81 70.4133 1055.45 69.86 1055.22 69.22L1057.66 68.3C1057.82 68.8067 1058.14 69.2133 1058.6 69.52C1059.08 69.84 1059.67 70 1060.36 70C1060.9 70 1061.36 69.9 1061.76 69.7C1062.18 69.5 1062.5 69.2067 1062.72 68.82C1062.95 68.4467 1063.06 67.9933 1063.06 67.46V64.98L1063.56 65.58C1063.19 66.2333 1062.69 66.7267 1062.06 67.06C1061.44 67.3933 1060.72 67.56 1059.92 67.56C1058.91 67.56 1058 67.3267 1057.2 66.86C1056.4 66.3933 1055.78 65.7533 1055.32 64.94C1054.87 64.1267 1054.64 63.2133 1054.64 62.2C1054.64 61.1733 1054.87 60.26 1055.32 59.46C1055.78 58.66 1056.4 58.0333 1057.18 57.58C1057.97 57.1133 1058.86 56.88 1059.86 56.88C1060.68 56.88 1061.39 57.0533 1062 57.4C1062.63 57.7333 1063.15 58.22 1063.56 58.86L1063.2 59.52V57.12H1065.68V67.46C1065.68 68.4067 1065.45 69.2533 1064.98 70C1064.53 70.7467 1063.9 71.3333 1063.1 71.76C1062.32 72.1867 1061.4 72.4 1060.36 72.4ZM1060.24 65.14C1060.8 65.14 1061.29 65.02 1061.7 64.78C1062.13 64.5267 1062.46 64.18 1062.7 63.74C1062.94 63.3 1063.06 62.7933 1063.06 62.22C1063.06 61.66 1062.94 61.16 1062.68 60.72C1062.44 60.2667 1062.11 59.9133 1061.68 59.66C1061.27 59.4067 1060.79 59.28 1060.24 59.28C1059.7 59.28 1059.2 59.4067 1058.76 59.66C1058.32 59.9133 1057.98 60.2667 1057.72 60.72C1057.48 61.16 1057.36 61.66 1057.36 62.22C1057.36 62.78 1057.48 63.28 1057.72 63.72C1057.98 64.16 1058.32 64.5067 1058.74 64.76C1059.18 65.0133 1059.68 65.14 1060.24 65.14ZM1068.13 68V57.12H1070.75V68H1068.13ZM1068.13 55.9V53.1H1070.75V55.9H1068.13ZM1077.31 68.24C1076.15 68.24 1075.14 67.9667 1074.27 67.42C1073.42 66.86 1072.83 66.1067 1072.51 65.16L1074.47 64.22C1074.75 64.8333 1075.14 65.3133 1075.63 65.66C1076.14 66.0067 1076.7 66.18 1077.31 66.18C1077.79 66.18 1078.17 66.0733 1078.45 65.86C1078.73 65.6467 1078.87 65.3667 1078.87 65.02C1078.87 64.8067 1078.81 64.6333 1078.69 64.5C1078.58 64.3533 1078.43 64.2333 1078.23 64.14C1078.04 64.0333 1077.84 63.9467 1077.61 63.88L1075.83 63.38C1074.91 63.1133 1074.21 62.7067 1073.73 62.16C1073.26 61.6133 1073.03 60.9667 1073.03 60.22C1073.03 59.5533 1073.2 58.9733 1073.53 58.48C1073.88 57.9733 1074.35 57.58 1074.95 57.3C1075.56 57.02 1076.26 56.88 1077.05 56.88C1078.08 56.88 1078.98 57.1267 1079.77 57.62C1080.56 58.1133 1081.12 58.8067 1081.45 59.7L1079.45 60.64C1079.26 60.1467 1078.95 59.7533 1078.51 59.46C1078.07 59.1667 1077.58 59.02 1077.03 59.02C1076.59 59.02 1076.24 59.12 1075.99 59.32C1075.74 59.52 1075.61 59.78 1075.61 60.1C1075.61 60.3 1075.66 60.4733 1075.77 60.62C1075.88 60.7667 1076.02 60.8867 1076.21 60.98C1076.41 61.0733 1076.64 61.16 1076.89 61.24L1078.63 61.76C1079.52 62.0267 1080.21 62.4267 1080.69 62.96C1081.18 63.4933 1081.43 64.1467 1081.43 64.92C1081.43 65.5733 1081.26 66.1533 1080.91 66.66C1080.56 67.1533 1080.08 67.54 1079.47 67.82C1078.86 68.1 1078.14 68.24 1077.31 68.24ZM1088.4 68.12C1087.18 68.12 1086.22 67.7867 1085.54 67.12C1084.88 66.44 1084.54 65.4867 1084.54 64.26V59.46H1082.66V57.12H1082.86C1083.4 57.12 1083.81 56.98 1084.1 56.7C1084.4 56.42 1084.54 56.0133 1084.54 55.48V54.64H1087.16V57.12H1089.66V59.46H1087.16V64.12C1087.16 64.48 1087.22 64.7867 1087.34 65.04C1087.48 65.2933 1087.68 65.4867 1087.94 65.62C1088.22 65.7533 1088.58 65.82 1089 65.82C1089.1 65.82 1089.2 65.8133 1089.32 65.8C1089.46 65.7867 1089.58 65.7733 1089.7 65.76V68C1089.52 68.0267 1089.3 68.0533 1089.06 68.08C1088.82 68.1067 1088.6 68.12 1088.4 68.12ZM1096.77 68.24C1095.65 68.24 1094.67 67.9867 1093.83 67.48C1092.99 66.9733 1092.33 66.2867 1091.87 65.42C1091.4 64.5533 1091.17 63.5933 1091.17 62.54C1091.17 61.4467 1091.4 60.48 1091.87 59.64C1092.35 58.7867 1092.99 58.1133 1093.81 57.62C1094.63 57.1267 1095.55 56.88 1096.57 56.88C1097.42 56.88 1098.17 57.02 1098.81 57.3C1099.46 57.58 1100.01 57.9667 1100.47 58.46C1100.92 58.9533 1101.27 59.52 1101.51 60.16C1101.75 60.7867 1101.87 61.4667 1101.87 62.2C1101.87 62.3867 1101.85 62.58 1101.83 62.78C1101.81 62.98 1101.78 63.1533 1101.73 63.3H1093.33V61.3H1100.25L1099.01 62.24C1099.13 61.6267 1099.09 61.08 1098.91 60.6C1098.73 60.12 1098.44 59.74 1098.03 59.46C1097.63 59.18 1097.14 59.04 1096.57 59.04C1096.02 59.04 1095.53 59.18 1095.11 59.46C1094.68 59.7267 1094.35 60.1267 1094.13 60.66C1093.91 61.18 1093.83 61.8133 1093.89 62.56C1093.83 63.2267 1093.92 63.82 1094.15 64.34C1094.39 64.8467 1094.73 65.24 1095.19 65.52C1095.65 65.8 1096.19 65.94 1096.79 65.94C1097.39 65.94 1097.89 65.8133 1098.31 65.56C1098.73 65.3067 1099.07 64.9667 1099.31 64.54L1101.43 65.58C1101.21 66.1 1100.88 66.56 1100.43 66.96C1099.97 67.36 1099.43 67.6733 1098.81 67.9C1098.19 68.1267 1097.51 68.24 1096.77 68.24ZM1103.85 68V57.12H1106.31V59.54L1106.11 59.18C1106.37 58.3667 1106.76 57.8 1107.29 57.48C1107.84 57.16 1108.49 57 1109.25 57H1109.89V59.32H1108.95C1108.21 59.32 1107.61 59.5533 1107.15 60.02C1106.7 60.4733 1106.47 61.1133 1106.47 61.94V68H1103.85ZM1121.74 68.24C1120.98 68.24 1120.32 68.1133 1119.76 67.86C1119.2 67.6067 1118.77 67.2467 1118.46 66.78C1118.16 66.3 1118 65.7467 1118 65.12C1118 64.52 1118.14 63.9867 1118.4 63.52C1118.67 63.04 1119.08 62.64 1119.64 62.32C1120.2 62 1120.91 61.7733 1121.76 61.64L1125.32 61.06V63.06L1122.26 63.58C1121.74 63.6733 1121.36 63.84 1121.1 64.08C1120.85 64.32 1120.72 64.6333 1120.72 65.02C1120.72 65.3933 1120.86 65.6933 1121.14 65.92C1121.44 66.1333 1121.8 66.24 1122.22 66.24C1122.77 66.24 1123.25 66.1267 1123.66 65.9C1124.09 65.66 1124.42 65.3333 1124.64 64.92C1124.88 64.5067 1125 64.0533 1125 63.56V60.76C1125 60.2933 1124.82 59.9067 1124.44 59.6C1124.08 59.28 1123.6 59.12 1123 59.12C1122.44 59.12 1121.94 59.2733 1121.5 59.58C1121.08 59.8733 1120.76 60.2667 1120.56 60.76L1118.42 59.72C1118.64 59.1467 1118.97 58.6533 1119.42 58.24C1119.89 57.8133 1120.44 57.48 1121.06 57.24C1121.69 57 1122.37 56.88 1123.1 56.88C1124 56.88 1124.78 57.0467 1125.46 57.38C1126.14 57.7 1126.67 58.1533 1127.04 58.74C1127.43 59.3133 1127.62 59.9867 1127.62 60.76V68H1125.14V66.14L1125.7 66.1C1125.42 66.5667 1125.09 66.96 1124.7 67.28C1124.32 67.5867 1123.88 67.8267 1123.38 68C1122.89 68.16 1122.34 68.24 1121.74 68.24ZM1134.18 68.24C1133.02 68.24 1132.01 67.9667 1131.14 67.42C1130.29 66.86 1129.7 66.1067 1129.38 65.16L1131.34 64.22C1131.62 64.8333 1132.01 65.3133 1132.5 65.66C1133.01 66.0067 1133.57 66.18 1134.18 66.18C1134.66 66.18 1135.04 66.0733 1135.32 65.86C1135.6 65.6467 1135.74 65.3667 1135.74 65.02C1135.74 64.8067 1135.68 64.6333 1135.56 64.5C1135.46 64.3533 1135.3 64.2333 1135.1 64.14C1134.92 64.0333 1134.71 63.9467 1134.48 63.88L1132.7 63.38C1131.78 63.1133 1131.08 62.7067 1130.6 62.16C1130.14 61.6133 1129.9 60.9667 1129.9 60.22C1129.9 59.5533 1130.07 58.9733 1130.4 58.48C1130.75 57.9733 1131.22 57.58 1131.82 57.3C1132.44 57.02 1133.14 56.88 1133.92 56.88C1134.95 56.88 1135.86 57.1267 1136.64 57.62C1137.43 58.1133 1137.99 58.8067 1138.32 59.7L1136.32 60.64C1136.14 60.1467 1135.82 59.7533 1135.38 59.46C1134.94 59.1667 1134.45 59.02 1133.9 59.02C1133.46 59.02 1133.12 59.12 1132.86 59.32C1132.61 59.52 1132.48 59.78 1132.48 60.1C1132.48 60.3 1132.54 60.4733 1132.64 60.62C1132.75 60.7667 1132.9 60.8867 1133.08 60.98C1133.28 61.0733 1133.51 61.16 1133.76 61.24L1135.5 61.76C1136.4 62.0267 1137.08 62.4267 1137.56 62.96C1138.06 63.4933 1138.3 64.1467 1138.3 64.92C1138.3 65.5733 1138.13 66.1533 1137.78 66.66C1137.44 67.1533 1136.96 67.54 1136.34 67.82C1135.73 68.1 1135.01 68.24 1134.18 68.24ZM1152.49 68.24C1151.43 68.24 1150.49 67.9933 1149.67 67.5C1148.84 66.9933 1148.19 66.3067 1147.71 65.44C1147.23 64.5733 1146.99 63.6133 1146.99 62.56C1146.99 61.4933 1147.23 60.5333 1147.71 59.68C1148.19 58.8267 1148.84 58.1467 1149.67 57.64C1150.51 57.1333 1151.44 56.88 1152.47 56.88C1153.29 56.88 1154.03 57.0467 1154.67 57.38C1155.32 57.7 1155.83 58.1533 1156.21 58.74L1155.81 59.28V52.86H1158.43V68H1155.95V65.9L1156.23 66.42C1155.85 67.0067 1155.33 67.46 1154.67 67.78C1154 68.0867 1153.27 68.24 1152.49 68.24ZM1152.77 65.84C1153.37 65.84 1153.89 65.7 1154.35 65.42C1154.8 65.14 1155.15 64.7533 1155.41 64.26C1155.67 63.7667 1155.81 63.2 1155.81 62.56C1155.81 61.9333 1155.67 61.3733 1155.41 60.88C1155.15 60.3733 1154.8 59.98 1154.35 59.7C1153.89 59.42 1153.37 59.28 1152.77 59.28C1152.18 59.28 1151.65 59.4267 1151.19 59.72C1150.72 60 1150.35 60.3867 1150.09 60.88C1149.83 61.36 1149.71 61.92 1149.71 62.56C1149.71 63.2 1149.83 63.7667 1150.09 64.26C1150.35 64.7533 1150.72 65.14 1151.19 65.42C1151.65 65.7 1152.18 65.84 1152.77 65.84ZM1166.18 68.24C1165.12 68.24 1164.14 67.9933 1163.26 67.5C1162.4 67.0067 1161.7 66.3333 1161.18 65.48C1160.68 64.6267 1160.42 63.6533 1160.42 62.56C1160.42 61.4667 1160.68 60.4933 1161.18 59.64C1161.7 58.7867 1162.4 58.1133 1163.26 57.62C1164.13 57.1267 1165.1 56.88 1166.18 56.88C1167.25 56.88 1168.22 57.1267 1169.08 57.62C1169.95 58.1133 1170.64 58.7867 1171.14 59.64C1171.66 60.48 1171.92 61.4533 1171.92 62.56C1171.92 63.6533 1171.66 64.6267 1171.14 65.48C1170.62 66.3333 1169.93 67.0067 1169.06 67.5C1168.2 67.9933 1167.24 68.24 1166.18 68.24ZM1166.18 65.84C1166.77 65.84 1167.28 65.7 1167.72 65.42C1168.18 65.14 1168.53 64.7533 1168.78 64.26C1169.05 63.7533 1169.18 63.1867 1169.18 62.56C1169.18 61.92 1169.05 61.36 1168.78 60.88C1168.53 60.3867 1168.18 60 1167.72 59.72C1167.28 59.4267 1166.77 59.28 1166.18 59.28C1165.58 59.28 1165.06 59.4267 1164.6 59.72C1164.15 60 1163.79 60.3867 1163.52 60.88C1163.27 61.36 1163.14 61.92 1163.14 62.56C1163.14 63.1867 1163.27 63.7533 1163.52 64.26C1163.79 64.7533 1164.15 65.14 1164.6 65.42C1165.06 65.7 1165.58 65.84 1166.18 65.84ZM1179.15 68.24C1178.07 68.24 1177.1 67.9933 1176.23 67.5C1175.38 66.9933 1174.7 66.3133 1174.21 65.46C1173.72 64.5933 1173.47 63.62 1173.47 62.54C1173.47 61.46 1173.72 60.4933 1174.21 59.64C1174.7 58.7867 1175.38 58.1133 1176.23 57.62C1177.1 57.1267 1178.07 56.88 1179.15 56.88C1179.92 56.88 1180.64 57.02 1181.31 57.3C1181.98 57.5667 1182.55 57.94 1183.03 58.42C1183.52 58.8867 1183.88 59.4467 1184.09 60.1L1181.79 61.1C1181.59 60.5533 1181.25 60.1133 1180.77 59.78C1180.3 59.4467 1179.76 59.28 1179.15 59.28C1178.58 59.28 1178.06 59.42 1177.61 59.7C1177.17 59.98 1176.82 60.3667 1176.57 60.86C1176.32 61.3533 1176.19 61.92 1176.19 62.56C1176.19 63.2 1176.32 63.7667 1176.57 64.26C1176.82 64.7533 1177.17 65.14 1177.61 65.42C1178.06 65.7 1178.58 65.84 1179.15 65.84C1179.78 65.84 1180.32 65.6733 1180.79 65.34C1181.26 65.0067 1181.59 64.56 1181.79 64L1184.09 65.04C1183.88 65.6533 1183.53 66.2067 1183.05 66.7C1182.57 67.18 1182 67.56 1181.33 67.84C1180.66 68.1067 1179.94 68.24 1179.15 68.24ZM1191.04 68.12C1189.81 68.12 1188.86 67.7867 1188.18 67.12C1187.51 66.44 1187.18 65.4867 1187.18 64.26V59.46H1185.3V57.12H1185.5C1186.03 57.12 1186.45 56.98 1186.74 56.7C1187.03 56.42 1187.18 56.0133 1187.18 55.48V54.64H1189.8V57.12H1192.3V59.46H1189.8V64.12C1189.8 64.48 1189.86 64.7867 1189.98 65.04C1190.11 65.2933 1190.31 65.4867 1190.58 65.62C1190.86 65.7533 1191.21 65.82 1191.64 65.82C1191.73 65.82 1191.84 65.8133 1191.96 65.8C1192.09 65.7867 1192.22 65.7733 1192.34 65.76V68C1192.15 68.0267 1191.94 68.0533 1191.7 68.08C1191.46 68.1067 1191.24 68.12 1191.04 68.12ZM1199.56 68.24C1198.5 68.24 1197.52 67.9933 1196.64 67.5C1195.78 67.0067 1195.08 66.3333 1194.56 65.48C1194.06 64.6267 1193.8 63.6533 1193.8 62.56C1193.8 61.4667 1194.06 60.4933 1194.56 59.64C1195.08 58.7867 1195.78 58.1133 1196.64 57.62C1197.51 57.1267 1198.48 56.88 1199.56 56.88C1200.63 56.88 1201.6 57.1267 1202.46 57.62C1203.33 58.1133 1204.02 58.7867 1204.52 59.64C1205.04 60.48 1205.3 61.4533 1205.3 62.56C1205.3 63.6533 1205.04 64.6267 1204.52 65.48C1204 66.3333 1203.31 67.0067 1202.44 67.5C1201.58 67.9933 1200.62 68.24 1199.56 68.24ZM1199.56 65.84C1200.15 65.84 1200.66 65.7 1201.1 65.42C1201.56 65.14 1201.91 64.7533 1202.16 64.26C1202.43 63.7533 1202.56 63.1867 1202.56 62.56C1202.56 61.92 1202.43 61.36 1202.16 60.88C1201.91 60.3867 1201.56 60 1201.1 59.72C1200.66 59.4267 1200.15 59.28 1199.56 59.28C1198.96 59.28 1198.44 59.4267 1197.98 59.72C1197.53 60 1197.17 60.3867 1196.9 60.88C1196.65 61.36 1196.52 61.92 1196.52 62.56C1196.52 63.1867 1196.65 63.7533 1196.9 64.26C1197.17 64.7533 1197.53 65.14 1197.98 65.42C1198.44 65.7 1198.96 65.84 1199.56 65.84ZM1207.29 68V57.12H1209.75V59.54L1209.55 59.18C1209.8 58.3667 1210.2 57.8 1210.73 57.48C1211.28 57.16 1211.93 57 1212.69 57H1213.33V59.32H1212.39C1211.64 59.32 1211.04 59.5533 1210.59 60.02C1210.14 60.4733 1209.91 61.1133 1209.91 61.94V68H1207.29Z" fill="#24AE7C"/>
<rect x="478" y="597" width="313" height="64" rx="32" fill="#46C582"/>
<path d="M518.44 635V620.1H524.72C525.707 620.1 526.547 620.273 527.24 620.62C527.947 620.953 528.487 621.433 528.86 622.06C529.247 622.673 529.44 623.42 529.44 624.3C529.44 624.98 529.253 625.62 528.88 626.22C528.52 626.807 527.94 627.293 527.14 627.68V626.42C527.873 626.7 528.453 627.047 528.88 627.46C529.307 627.873 529.607 628.333 529.78 628.84C529.953 629.347 530.04 629.88 530.04 630.44C530.04 631.867 529.567 632.987 528.62 633.8C527.687 634.6 526.387 635 524.72 635H518.44ZM521.16 632.6H525C525.707 632.6 526.267 632.407 526.68 632.02C527.107 631.62 527.32 631.093 527.32 630.44C527.32 629.787 527.107 629.26 526.68 628.86C526.267 628.46 525.707 628.26 525 628.26H521.16V632.6ZM521.16 625.88H524.86C525.42 625.88 525.867 625.72 526.2 625.4C526.533 625.067 526.7 624.64 526.7 624.12C526.7 623.6 526.533 623.187 526.2 622.88C525.867 622.573 525.42 622.42 524.86 622.42H521.16V625.88ZM537.368 635.24C536.301 635.24 535.328 634.993 534.448 634.5C533.581 634.007 532.888 633.333 532.368 632.48C531.861 631.627 531.608 630.653 531.608 629.56C531.608 628.467 531.861 627.493 532.368 626.64C532.888 625.787 533.581 625.113 534.448 624.62C535.315 624.127 536.288 623.88 537.368 623.88C538.435 623.88 539.401 624.127 540.268 624.62C541.135 625.113 541.821 625.787 542.328 626.64C542.848 627.48 543.108 628.453 543.108 629.56C543.108 630.653 542.848 631.627 542.328 632.48C541.808 633.333 541.115 634.007 540.248 634.5C539.381 634.993 538.421 635.24 537.368 635.24ZM537.368 632.84C537.955 632.84 538.468 632.7 538.908 632.42C539.361 632.14 539.715 631.753 539.968 631.26C540.235 630.753 540.368 630.187 540.368 629.56C540.368 628.92 540.235 628.36 539.968 627.88C539.715 627.387 539.361 627 538.908 626.72C538.468 626.427 537.955 626.28 537.368 626.28C536.768 626.28 536.241 626.427 535.788 626.72C535.335 627 534.975 627.387 534.708 627.88C534.455 628.36 534.328 628.92 534.328 629.56C534.328 630.187 534.455 630.753 534.708 631.26C534.975 631.753 535.335 632.14 535.788 632.42C536.241 632.7 536.768 632.84 537.368 632.84ZM550.415 635.24C549.348 635.24 548.375 634.993 547.495 634.5C546.628 634.007 545.935 633.333 545.415 632.48C544.908 631.627 544.655 630.653 544.655 629.56C544.655 628.467 544.908 627.493 545.415 626.64C545.935 625.787 546.628 625.113 547.495 624.62C548.362 624.127 549.335 623.88 550.415 623.88C551.482 623.88 552.448 624.127 553.315 624.62C554.182 625.113 554.868 625.787 555.375 626.64C555.895 627.48 556.155 628.453 556.155 629.56C556.155 630.653 555.895 631.627 555.375 632.48C554.855 633.333 554.162 634.007 553.295 634.5C552.428 634.993 551.468 635.24 550.415 635.24ZM550.415 632.84C551.002 632.84 551.515 632.7 551.955 632.42C552.408 632.14 552.762 631.753 553.015 631.26C553.282 630.753 553.415 630.187 553.415 629.56C553.415 628.92 553.282 628.36 553.015 627.88C552.762 627.387 552.408 627 551.955 626.72C551.515 626.427 551.002 626.28 550.415 626.28C549.815 626.28 549.288 626.427 548.835 626.72C548.382 627 548.022 627.387 547.755 627.88C547.502 628.36 547.375 628.92 547.375 629.56C547.375 630.187 547.502 630.753 547.755 631.26C548.022 631.753 548.382 632.14 548.835 632.42C549.288 632.7 549.815 632.84 550.415 632.84ZM558.142 635V619.86H560.762V629.78L559.762 629.48L564.882 624.12H568.142L564.122 628.5L568.222 635H565.222L561.662 629.36L563.222 629.04L559.942 632.56L560.762 630.96V635H558.142ZM574.56 639.42C574.266 639.42 573.98 639.393 573.7 639.34C573.42 639.3 573.166 639.227 572.94 639.12V636.92C573.113 636.96 573.32 637 573.56 637.04C573.813 637.08 574.046 637.1 574.26 637.1C574.86 637.1 575.293 636.96 575.56 636.68C575.84 636.4 576.086 636.033 576.3 635.58L577.02 633.9L576.98 636.1L572.24 624.12H575.06L578.38 632.96H577.38L580.68 624.12H583.52L578.78 636.1C578.5 636.807 578.16 637.407 577.76 637.9C577.36 638.393 576.893 638.767 576.36 639.02C575.84 639.287 575.24 639.42 574.56 639.42ZM590.083 635.24C589.016 635.24 588.043 634.993 587.163 634.5C586.296 634.007 585.603 633.333 585.083 632.48C584.576 631.627 584.323 630.653 584.323 629.56C584.323 628.467 584.576 627.493 585.083 626.64C585.603 625.787 586.296 625.113 587.163 624.62C588.03 624.127 589.003 623.88 590.083 623.88C591.15 623.88 592.116 624.127 592.983 624.62C593.85 625.113 594.536 625.787 595.043 626.64C595.563 627.48 595.823 628.453 595.823 629.56C595.823 630.653 595.563 631.627 595.043 632.48C594.523 633.333 593.83 634.007 592.963 634.5C592.096 634.993 591.136 635.24 590.083 635.24ZM590.083 632.84C590.67 632.84 591.183 632.7 591.623 632.42C592.076 632.14 592.43 631.753 592.683 631.26C592.95 630.753 593.083 630.187 593.083 629.56C593.083 628.92 592.95 628.36 592.683 627.88C592.43 627.387 592.076 627 591.623 626.72C591.183 626.427 590.67 626.28 590.083 626.28C589.483 626.28 588.956 626.427 588.503 626.72C588.05 627 587.69 627.387 587.423 627.88C587.17 628.36 587.043 628.92 587.043 629.56C587.043 630.187 587.17 630.753 587.423 631.26C587.69 631.753 588.05 632.14 588.503 632.42C588.956 632.7 589.483 632.84 590.083 632.84ZM601.69 635.24C600.85 635.24 600.117 635.053 599.49 634.68C598.877 634.307 598.403 633.787 598.07 633.12C597.75 632.453 597.59 631.673 597.59 630.78V624.12H600.21V630.56C600.21 631.013 600.297 631.413 600.47 631.76C600.657 632.093 600.917 632.36 601.25 632.56C601.597 632.747 601.983 632.84 602.41 632.84C602.837 632.84 603.217 632.747 603.55 632.56C603.883 632.36 604.143 632.087 604.33 631.74C604.517 631.393 604.61 630.98 604.61 630.5V624.12H607.23V635H604.75V632.86L604.97 633.24C604.717 633.907 604.297 634.407 603.71 634.74C603.137 635.073 602.463 635.24 601.69 635.24ZM609.665 635V624.12H612.125V626.54L611.925 626.18C612.179 625.367 612.572 624.8 613.105 624.48C613.652 624.16 614.305 624 615.065 624H615.705V626.32H614.765C614.019 626.32 613.419 626.553 612.965 627.02C612.512 627.473 612.285 628.113 612.285 628.94V635H609.665ZM624 635.24C623.24 635.24 622.58 635.113 622.02 634.86C621.46 634.607 621.027 634.247 620.72 633.78C620.414 633.3 620.26 632.747 620.26 632.12C620.26 631.52 620.394 630.987 620.66 630.52C620.927 630.04 621.34 629.64 621.9 629.32C622.46 629 623.167 628.773 624.02 628.64L627.58 628.06V630.06L624.52 630.58C624 630.673 623.614 630.84 623.36 631.08C623.107 631.32 622.98 631.633 622.98 632.02C622.98 632.393 623.12 632.693 623.4 632.92C623.694 633.133 624.054 633.24 624.48 633.24C625.027 633.24 625.507 633.127 625.92 632.9C626.347 632.66 626.674 632.333 626.9 631.92C627.14 631.507 627.26 631.053 627.26 630.56V627.76C627.26 627.293 627.074 626.907 626.7 626.6C626.34 626.28 625.86 626.12 625.26 626.12C624.7 626.12 624.2 626.273 623.76 626.58C623.334 626.873 623.02 627.267 622.82 627.76L620.68 626.72C620.894 626.147 621.227 625.653 621.68 625.24C622.147 624.813 622.694 624.48 623.32 624.24C623.947 624 624.627 623.88 625.36 623.88C626.254 623.88 627.04 624.047 627.72 624.38C628.4 624.7 628.927 625.153 629.3 625.74C629.687 626.313 629.88 626.987 629.88 627.76V635H627.4V633.14L627.96 633.1C627.68 633.567 627.347 633.96 626.96 634.28C626.574 634.587 626.134 634.827 625.64 635C625.147 635.16 624.6 635.24 624 635.24ZM632.302 639V624.12H634.762V626.28L634.522 625.74C634.895 625.153 635.402 624.7 636.042 624.38C636.682 624.047 637.422 623.88 638.262 623.88C639.289 623.88 640.215 624.133 641.042 624.64C641.869 625.147 642.522 625.827 643.002 626.68C643.495 627.533 643.742 628.493 643.742 629.56C643.742 630.613 643.502 631.573 643.022 632.44C642.542 633.307 641.889 633.993 641.062 634.5C640.235 634.993 639.295 635.24 638.242 635.24C637.455 635.24 636.729 635.087 636.062 634.78C635.409 634.46 634.889 634.007 634.502 633.42L634.922 632.9V639H632.302ZM637.942 632.84C638.542 632.84 639.075 632.7 639.542 632.42C640.009 632.14 640.369 631.753 640.622 631.26C640.889 630.767 641.022 630.2 641.022 629.56C641.022 628.92 640.889 628.36 640.622 627.88C640.369 627.387 640.009 627 639.542 626.72C639.075 626.427 638.542 626.28 637.942 626.28C637.369 626.28 636.849 626.42 636.382 626.7C635.929 626.98 635.569 627.373 635.302 627.88C635.049 628.373 634.922 628.933 634.922 629.56C634.922 630.2 635.049 630.767 635.302 631.26C635.569 631.753 635.929 632.14 636.382 632.42C636.849 632.7 637.369 632.84 637.942 632.84ZM645.74 639V624.12H648.2V626.28L647.96 625.74C648.333 625.153 648.84 624.7 649.48 624.38C650.12 624.047 650.86 623.88 651.7 623.88C652.726 623.88 653.653 624.133 654.48 624.64C655.306 625.147 655.96 625.827 656.44 626.68C656.933 627.533 657.18 628.493 657.18 629.56C657.18 630.613 656.94 631.573 656.46 632.44C655.98 633.307 655.326 633.993 654.5 634.5C653.673 634.993 652.733 635.24 651.68 635.24C650.893 635.24 650.166 635.087 649.5 634.78C648.846 634.46 648.326 634.007 647.94 633.42L648.36 632.9V639H645.74ZM651.38 632.84C651.98 632.84 652.513 632.7 652.98 632.42C653.446 632.14 653.806 631.753 654.06 631.26C654.326 630.767 654.46 630.2 654.46 629.56C654.46 628.92 654.326 628.36 654.06 627.88C653.806 627.387 653.446 627 652.98 626.72C652.513 626.427 651.98 626.28 651.38 626.28C650.806 626.28 650.286 626.42 649.82 626.7C649.366 626.98 649.006 627.373 648.74 627.88C648.486 628.373 648.36 628.933 648.36 629.56C648.36 630.2 648.486 630.767 648.74 631.26C649.006 631.753 649.366 632.14 649.82 632.42C650.286 632.7 650.806 632.84 651.38 632.84ZM664.497 635.24C663.43 635.24 662.457 634.993 661.577 634.5C660.71 634.007 660.017 633.333 659.497 632.48C658.99 631.627 658.737 630.653 658.737 629.56C658.737 628.467 658.99 627.493 659.497 626.64C660.017 625.787 660.71 625.113 661.577 624.62C662.444 624.127 663.417 623.88 664.497 623.88C665.564 623.88 666.53 624.127 667.397 624.62C668.264 625.113 668.95 625.787 669.457 626.64C669.977 627.48 670.237 628.453 670.237 629.56C670.237 630.653 669.977 631.627 669.457 632.48C668.937 633.333 668.244 634.007 667.377 634.5C666.51 634.993 665.55 635.24 664.497 635.24ZM664.497 632.84C665.084 632.84 665.597 632.7 666.037 632.42C666.49 632.14 666.844 631.753 667.097 631.26C667.364 630.753 667.497 630.187 667.497 629.56C667.497 628.92 667.364 628.36 667.097 627.88C666.844 627.387 666.49 627 666.037 626.72C665.597 626.427 665.084 626.28 664.497 626.28C663.897 626.28 663.37 626.427 662.917 626.72C662.464 627 662.104 627.387 661.837 627.88C661.584 628.36 661.457 628.92 661.457 629.56C661.457 630.187 661.584 630.753 661.837 631.26C662.104 631.753 662.464 632.14 662.917 632.42C663.37 632.7 663.897 632.84 664.497 632.84ZM672.224 635V624.12H674.844V635H672.224ZM672.224 622.9V620.1H674.844V622.9H672.224ZM677.263 635V624.12H679.723V626.26L679.523 625.88C679.776 625.227 680.19 624.733 680.763 624.4C681.35 624.053 682.03 623.88 682.803 623.88C683.603 623.88 684.31 624.053 684.923 624.4C685.55 624.747 686.036 625.233 686.383 625.86C686.73 626.473 686.903 627.187 686.903 628V635H684.283V628.62C684.283 628.14 684.19 627.727 684.003 627.38C683.816 627.033 683.556 626.767 683.223 626.58C682.903 626.38 682.523 626.28 682.083 626.28C681.656 626.28 681.276 626.38 680.943 626.58C680.61 626.767 680.35 627.033 680.163 627.38C679.976 627.727 679.883 628.14 679.883 628.62V635H677.263ZM694.078 635.12C692.852 635.12 691.898 634.787 691.218 634.12C690.552 633.44 690.218 632.487 690.218 631.26V626.46H688.338V624.12H688.538C689.072 624.12 689.485 623.98 689.778 623.7C690.072 623.42 690.218 623.013 690.218 622.48V621.64H692.838V624.12H695.338V626.46H692.838V631.12C692.838 631.48 692.898 631.787 693.018 632.04C693.152 632.293 693.352 632.487 693.618 632.62C693.898 632.753 694.252 632.82 694.678 632.82C694.772 632.82 694.878 632.813 694.998 632.8C695.132 632.787 695.258 632.773 695.378 632.76V635C695.192 635.027 694.978 635.053 694.738 635.08C694.498 635.107 694.278 635.12 694.078 635.12ZM697.38 635V624.12H699.84V626.64L699.56 626.22C699.76 625.433 700.16 624.847 700.76 624.46C701.36 624.073 702.067 623.88 702.88 623.88C703.773 623.88 704.56 624.113 705.24 624.58C705.92 625.047 706.36 625.66 706.56 626.42L705.82 626.48C706.153 625.613 706.653 624.967 707.32 624.54C707.987 624.1 708.753 623.88 709.62 623.88C710.393 623.88 711.08 624.053 711.68 624.4C712.293 624.747 712.773 625.233 713.12 625.86C713.467 626.473 713.64 627.187 713.64 628V635H711.02V628.62C711.02 628.14 710.933 627.727 710.76 627.38C710.587 627.033 710.347 626.767 710.04 626.58C709.733 626.38 709.36 626.28 708.92 626.28C708.507 626.28 708.14 626.38 707.82 626.58C707.5 626.767 707.253 627.033 707.08 627.38C706.907 627.727 706.82 628.14 706.82 628.62V635H704.2V628.62C704.2 628.14 704.113 627.727 703.94 627.38C703.767 627.033 703.52 626.767 703.2 626.58C702.893 626.38 702.527 626.28 702.1 626.28C701.687 626.28 701.32 626.38 701 626.58C700.68 626.767 700.433 627.033 700.26 627.38C700.087 627.727 700 628.14 700 628.62V635H697.38ZM721.017 635.24C719.897 635.24 718.917 634.987 718.077 634.48C717.237 633.973 716.583 633.287 716.117 632.42C715.65 631.553 715.417 630.593 715.417 629.54C715.417 628.447 715.65 627.48 716.117 626.64C716.597 625.787 717.243 625.113 718.057 624.62C718.883 624.127 719.803 623.88 720.817 623.88C721.67 623.88 722.417 624.02 723.057 624.3C723.71 624.58 724.263 624.967 724.717 625.46C725.17 625.953 725.517 626.52 725.757 627.16C725.997 627.787 726.117 628.467 726.117 629.2C726.117 629.387 726.103 629.58 726.077 629.78C726.063 629.98 726.03 630.153 725.977 630.3H717.577V628.3H724.497L723.257 629.24C723.377 628.627 723.343 628.08 723.157 627.6C722.983 627.12 722.69 626.74 722.277 626.46C721.877 626.18 721.39 626.04 720.817 626.04C720.27 626.04 719.783 626.18 719.357 626.46C718.93 626.727 718.603 627.127 718.377 627.66C718.163 628.18 718.083 628.813 718.137 629.56C718.083 630.227 718.17 630.82 718.397 631.34C718.637 631.847 718.983 632.24 719.437 632.52C719.903 632.8 720.437 632.94 721.037 632.94C721.637 632.94 722.143 632.813 722.557 632.56C722.983 632.307 723.317 631.967 723.557 631.54L725.677 632.58C725.463 633.1 725.13 633.56 724.677 633.96C724.223 634.36 723.683 634.673 723.057 634.9C722.443 635.127 721.763 635.24 721.017 635.24ZM728.103 635V624.12H730.563V626.26L730.363 625.88C730.616 625.227 731.029 624.733 731.603 624.4C732.189 624.053 732.869 623.88 733.643 623.88C734.443 623.88 735.149 624.053 735.763 624.4C736.389 624.747 736.876 625.233 737.223 625.86C737.569 626.473 737.743 627.187 737.743 628V635H735.123V628.62C735.123 628.14 735.029 627.727 734.843 627.38C734.656 627.033 734.396 626.767 734.063 626.58C733.743 626.38 733.363 626.28 732.923 626.28C732.496 626.28 732.116 626.38 731.783 626.58C731.449 626.767 731.189 627.033 731.003 627.38C730.816 627.727 730.723 628.14 730.723 628.62V635H728.103ZM744.918 635.12C743.692 635.12 742.738 634.787 742.058 634.12C741.392 633.44 741.058 632.487 741.058 631.26V626.46H739.178V624.12H739.378C739.912 624.12 740.325 623.98 740.618 623.7C740.912 623.42 741.058 623.013 741.058 622.48V621.64H743.678V624.12H746.178V626.46H743.678V631.12C743.678 631.48 743.738 631.787 743.858 632.04C743.992 632.293 744.192 632.487 744.458 632.62C744.738 632.753 745.092 632.82 745.518 632.82C745.612 632.82 745.718 632.813 745.838 632.8C745.972 632.787 746.098 632.773 746.218 632.76V635C746.032 635.027 745.818 635.053 745.578 635.08C745.338 635.107 745.118 635.12 744.918 635.12Z" fill="#ECEEF1"/>
<g clip-path="url(#clip0_1_2)">
<g filter="url(#filter1_d_1_2)">
<path d="M95.8124 73.0625V53.6925H99.6251L106.717 63.3125H104.938L111.826 53.6925H115.639V73.0625H111.699V58.1385L113.275 58.5025L105.98 68.1225H105.471L98.4305 58.5025L99.7522 58.1385V73.0625H95.8124ZM126.419 73.3745C124.945 73.3745 123.665 73.0452 122.581 72.3865C121.496 71.7105 120.657 70.8092 120.065 69.6825C119.471 68.5558 119.175 67.3078 119.175 65.9385C119.175 64.5172 119.48 63.2518 120.09 62.1425C120.717 61.0332 121.556 60.1578 122.607 59.5165C123.657 58.8752 124.843 58.5545 126.165 58.5545C127.266 58.5545 128.241 58.7365 129.088 59.1005C129.935 59.4472 130.647 59.9412 131.223 60.5825C131.816 61.2238 132.266 61.9692 132.571 62.8185C132.876 63.6505 133.028 64.5605 133.028 65.5485C133.028 65.8258 133.011 66.1032 132.977 66.3805C132.96 66.6405 132.918 66.8658 132.85 67.0565H122.454V64.1965H130.69L128.885 65.5485C129.054 64.8032 129.045 64.1445 128.86 63.5725C128.673 62.9832 128.342 62.5238 127.868 62.1945C127.411 61.8478 126.843 61.6745 126.165 61.6745C125.504 61.6745 124.936 61.8392 124.462 62.1685C123.987 62.4978 123.631 62.9832 123.395 63.6245C123.157 64.2658 123.064 65.0458 123.115 65.9645C123.047 66.7618 123.14 67.4638 123.395 68.0705C123.649 68.6772 124.038 69.1538 124.564 69.5005C125.089 69.8298 125.724 69.9945 126.47 69.9945C127.148 69.9945 127.724 69.8558 128.199 69.5785C128.69 69.3012 129.071 68.9198 129.342 68.4345L132.393 69.9165C132.121 70.6098 131.689 71.2165 131.096 71.7365C130.52 72.2565 129.833 72.6638 129.037 72.9585C128.241 73.2358 127.368 73.3745 126.419 73.3745ZM142.822 73.3745C141.466 73.3745 140.255 73.0452 139.187 72.3865C138.12 71.7278 137.272 70.8352 136.646 69.7085C136.035 68.5818 135.73 67.3338 135.73 65.9645C135.73 64.5778 136.044 63.3298 136.671 62.2205C137.298 61.0938 138.145 60.2012 139.213 59.5425C140.28 58.8838 141.475 58.5545 142.797 58.5545C143.814 58.5545 144.712 58.7538 145.491 59.1525C146.288 59.5338 146.915 60.0798 147.372 60.7905L146.787 61.5705V53.3805H150.6V73.0625H147.042V70.4625L147.398 71.2685C146.923 71.9618 146.279 72.4905 145.466 72.8545C144.652 73.2012 143.771 73.3745 142.822 73.3745ZM143.28 69.8645C143.975 69.8645 144.585 69.6998 145.11 69.3705C145.635 69.0412 146.042 68.5818 146.33 67.9925C146.635 67.4032 146.787 66.7272 146.787 65.9645C146.787 65.2018 146.635 64.5258 146.33 63.9365C146.042 63.3472 145.635 62.8878 145.11 62.5585C144.585 62.2292 143.975 62.0645 143.28 62.0645C142.585 62.0645 141.958 62.2378 141.399 62.5845C140.856 62.9138 140.433 63.3732 140.128 63.9625C139.823 64.5345 139.67 65.2018 139.67 65.9645C139.67 66.7272 139.823 67.4032 140.128 67.9925C140.433 68.5818 140.856 69.0412 141.399 69.3705C141.958 69.6998 142.585 69.8645 143.28 69.8645ZM154.409 73.0625V58.8665H158.222V73.0625H154.409ZM154.409 57.5925V53.6925H158.222V57.5925H154.409ZM162.309 73.0625V53.6925H169.578C170.883 53.6925 172.035 53.9265 173.035 54.3945C174.052 54.8625 174.848 55.5558 175.425 56.4745C176 57.3932 176.289 58.5285 176.289 59.8805C176.289 61.1978 175.992 62.3158 175.399 63.2345C174.822 64.1532 174.027 64.8552 173.01 65.3405C172.01 65.8085 170.866 66.0425 169.578 66.0425H166.248V73.0625H162.309ZM166.248 62.5325H169.604C170.163 62.5325 170.646 62.4198 171.053 62.1945C171.459 61.9692 171.772 61.6572 171.993 61.2585C172.23 60.8598 172.349 60.4005 172.349 59.8805C172.349 59.3432 172.23 58.8752 171.993 58.4765C171.772 58.0778 171.459 57.7658 171.053 57.5405C170.646 57.3152 170.163 57.2025 169.604 57.2025H166.248V62.5325ZM184.535 73.3745C183.416 73.3745 182.459 73.1318 181.662 72.6465C180.883 72.1438 180.29 71.4505 179.883 70.5665C179.476 69.6825 179.273 68.6512 179.273 67.4725V58.8665H183.086V67.1605C183.086 67.6978 183.187 68.1745 183.391 68.5905C183.611 68.9892 183.916 69.3012 184.306 69.5265C184.696 69.7518 185.136 69.8645 185.628 69.8645C186.136 69.8645 186.577 69.7518 186.949 69.5265C187.339 69.3012 187.636 68.9892 187.839 68.5905C188.059 68.1745 188.169 67.6978 188.169 67.1605V58.8665H191.982V73.0625H188.424V70.2545L188.627 70.8785C188.305 71.7278 187.779 72.3605 187.051 72.7765C186.339 73.1752 185.501 73.3745 184.535 73.3745ZM195.785 73.0625V53.3805H199.598V73.0625H195.785ZM208.845 73.3745C207.32 73.3745 205.989 73.0105 204.854 72.2825C203.736 71.5372 202.973 70.5405 202.567 69.2925L205.363 67.9405C205.719 68.7032 206.201 69.3012 206.812 69.7345C207.422 70.1678 208.099 70.3845 208.845 70.3845C209.387 70.3845 209.802 70.2718 210.09 70.0465C210.378 69.8212 210.523 69.5092 210.523 69.1105C210.523 68.9025 210.472 68.7292 210.37 68.5905C210.268 68.4345 210.116 68.2958 209.913 68.1745C209.709 68.0532 209.455 67.9492 209.15 67.8625L206.786 67.1865C205.65 66.8572 204.778 66.3285 204.168 65.6005C203.558 64.8552 203.253 63.9798 203.253 62.9745C203.253 62.0905 203.473 61.3192 203.914 60.6605C204.354 60.0018 204.973 59.4905 205.769 59.1265C206.565 58.7452 207.48 58.5545 208.515 58.5545C209.87 58.5545 211.056 58.8838 212.073 59.5425C213.107 60.1838 213.835 61.0938 214.259 62.2725L211.438 63.6245C211.234 63.0352 210.861 62.5672 210.319 62.2205C209.793 61.8565 209.192 61.6745 208.515 61.6745C208.023 61.6745 207.633 61.7785 207.345 61.9865C207.074 62.1945 206.939 62.4805 206.939 62.8445C206.939 63.0352 206.989 63.2085 207.091 63.3645C207.193 63.5205 207.353 63.6592 207.574 63.7805C207.811 63.9018 208.099 64.0145 208.438 64.1185L210.65 64.7945C211.801 65.1412 212.683 65.6698 213.293 66.3805C213.903 67.0738 214.208 67.9318 214.208 68.9545C214.208 69.8385 213.98 70.6098 213.522 71.2685C213.081 71.9272 212.462 72.4472 211.666 72.8285C210.87 73.1925 209.929 73.3745 208.845 73.3745ZM224.189 73.3745C222.715 73.3745 221.435 73.0452 220.351 72.3865C219.266 71.7105 218.427 70.8092 217.834 69.6825C217.241 68.5558 216.945 67.3078 216.945 65.9385C216.945 64.5172 217.25 63.2518 217.86 62.1425C218.487 61.0332 219.325 60.1578 220.376 59.5165C221.426 58.8752 222.613 58.5545 223.935 58.5545C225.036 58.5545 226.01 58.7365 226.858 59.1005C227.705 59.4472 228.416 59.9412 228.993 60.5825C229.586 61.2238 230.035 61.9692 230.34 62.8185C230.645 63.6505 230.798 64.5605 230.798 65.5485C230.798 65.8258 230.78 66.1032 230.747 66.3805C230.729 66.6405 230.687 66.8658 230.62 67.0565H220.224V64.1965H228.459L226.655 65.5485C226.824 64.8032 226.815 64.1445 226.629 63.5725C226.443 62.9832 226.112 62.5238 225.638 62.1945C225.18 61.8478 224.612 61.6745 223.935 61.6745C223.274 61.6745 222.706 61.8392 222.232 62.1685C221.757 62.4978 221.401 62.9832 221.164 63.6245C220.927 64.2658 220.834 65.0458 220.885 65.9645C220.816 66.7618 220.91 67.4638 221.164 68.0705C221.418 68.6772 221.808 69.1538 222.333 69.5005C222.859 69.8298 223.494 69.9945 224.24 69.9945C224.917 69.9945 225.493 69.8558 225.968 69.5785C226.459 69.3012 226.84 68.9198 227.112 68.4345L230.162 69.9165C229.891 70.6098 229.459 71.2165 228.866 71.7365C228.289 72.2565 227.603 72.6638 226.807 72.9585C226.01 73.2358 225.137 73.3745 224.189 73.3745Z" fill="white"/>
<path d="M232.941 73.0625L239.143 63.3645L232.941 53.6925H237.465L242.447 61.4405H240.236L245.193 53.6925H249.717L243.54 63.3645L249.717 73.0625H245.193L240.236 65.2885L242.447 65.3145L237.465 73.0625H232.941Z" fill="#38B59B"/>
<g filter="url(#filter2_d_1_2)">
<path d="M70.305 31.625H49.6525C40.0012 31.625 32.1773 39.6279 32.1773 49.5V70.625C32.1773 80.4971 40.0012 88.5 49.6525 88.5H70.305C79.9562 88.5 87.7801 80.4971 87.7801 70.625V49.5C87.7801 39.6279 79.9562 31.625 70.305 31.625Z" fill="url(#paint0_linear_1_2)"/>
</g>
<path d="M42.5035 55.0194C42.5035 49.2046 47.6542 43.8125 52.5319 43.8125C55.9167 43.8125 58.4284 46.2317 59.9787 49.6636C61.529 46.232 64.0406 43.8125 67.4255 43.8125C72.3037 43.8125 77.4539 49.2055 77.4539 55.0194C77.4539 67.4653 59.9787 76.3125 59.9787 76.3125C59.9787 76.3125 42.5035 68.0006 42.5035 55.0194Z" fill="url(#paint1_radial_1_2)"/>
<g filter="url(#filter3_d_1_2)">
<path d="M58.6547 54.375V64.9375H62.0968V54.375H58.6547Z" fill="#ECEEF1"/>
<path d="M58.6547 54.375V64.9375H62.0968V54.375H58.6547Z" fill="#ECEEF1"/>
<path d="M58.6547 54.375V64.9375H62.0968V54.375H58.6547Z" fill="#ECEEF1"/>
<path d="M65.539 57.8958H55.2128V61.4166H65.539V57.8958Z" fill="#ECEEF1"/>
<path d="M65.539 57.8958H55.2128V61.4166H65.539V57.8958Z" fill="#ECEEF1"/>
<path d="M65.539 57.8958H55.2128V61.4166H65.539V57.8958Z" fill="#ECEEF1"/>
</g>
</g>
</g>
<defs>
<filter id="filter0_d_1_2" x="398.312" y="345.328" width="487.455" height="103.472" filterUnits="userSpaceOnUse" color-interpolation-filters="sRGB">
<feFlood flood-opacity="0" result="BackgroundImageFix"/>
<feColorMatrix in="SourceAlpha" type="matrix" values="0 0 0 0 0 0 0 0 0 0 0 0 0 0 0 0 0 0 127 0" result="hardAlpha"/>
<feOffset dx="2" dy="6"/>
<feGaussianBlur stdDeviation="2.8"/>
<feComposite in2="hardAlpha" operator="out"/>
<feColorMatrix type="matrix" values="0 0 0 0 0 0 0 0 0 0 0 0 0 0 0 0 0 0 0.25 0"/>
<feBlend mode="normal" in2="BackgroundImageFix" result="effect1_dropShadow_1_2"/>
<feBlend mode="normal" in="SourceGraphic" in2="effect1_dropShadow_1_2" result="shape"/>
</filter>
<filter id="filter1_d_1_2" x="28.1773" y="31.625" width="225.54" height="64.875" filterUnits="userSpaceOnUse" color-interpolation-filters="sRGB">
<feFlood flood-opacity="0" result="BackgroundImageFix"/>
<feColorMatrix in="SourceAlpha" type="matrix" values="0 0 0 0 0 0 0 0 0 0 0 0 0 0 0 0 0 0 127 0" result="hardAlpha"/>
<feOffset dy="4"/>
<feGaussianBlur stdDeviation="2"/>
<feComposite in2="hardAlpha" operator="out"/>
<feColorMatrix type="matrix" values="0 0 0 0 0 0 0 0 0 0 0 0 0 0 0 0 0 0 0.25 0"/>
<feBlend mode="normal" in2="BackgroundImageFix" result="effect1_dropShadow_1_2"/>
<feBlend mode="normal" in="SourceGraphic" in2="effect1_dropShadow_1_2" result="shape"/>
</filter>
<filter id="filter2_d_1_2" x="27.2773" y="28.725" width="65.4028" height="66.675" filterUnits="userSpaceOnUse" color-interpolation-filters="sRGB">
<feFlood flood-opacity="0" result="BackgroundImageFix"/>
<feColorMatrix in="SourceAlpha" type="matrix" values="0 0 0 0 0 0 0 0 0 0 0 0 0 0 0 0 0 0 127 0" result="hardAlpha"/>
<feOffset dy="2"/>
<feGaussianBlur stdDeviation="2.45"/>
<feComposite in2="hardAlpha" operator="out"/>
<feColorMatrix type="matrix" values="0 0 0 0 0 0 0 0 0 0 0 0 0 0 0 0 0 0 0.15 0"/>
<feBlend mode="normal" in2="BackgroundImageFix" result="effect1_dropShadow_1_2"/>
<feBlend mode="normal" in="SourceGraphic" in2="effect1_dropShadow_1_2" result="shape"/>
</filter>
<filter id="filter3_d_1_2" x="51.2128" y="54.375" width="18.3262" height="18.5625" filterUnits="userSpaceOnUse" color-interpolation-filters="sRGB">
<feFlood flood-opacity="0" result="BackgroundImageFix"/>
<feColorMatrix in="SourceAlpha" type="matrix" values="0 0 0 0 0 0 0 0 0 0 0 0 0 0 0 0 0 0 127 0" result="hardAlpha"/>
<feOffset dy="4"/>
<feGaussianBlur stdDeviation="2"/>
<feComposite in2="hardAlpha" operator="out"/>
<feColorMatrix type="matrix" values="0 0 0 0 0 0 0 0 0 0 0 0 0 0 0 0 0 0 0.25 0"/>
<feBlend mode="normal" in2="BackgroundImageFix" result="effect1_dropShadow_1_2"/>
<feBlend mode="normal" in="SourceGraphic" in2="effect1_dropShadow_1_2" result="shape"/>
</filter>
<linearGradient id="paint0_linear_1_2" x1="59.9787" y1="31.625" x2="59.9787" y2="88.5" gradientUnits="userSpaceOnUse">
<stop stop-color="#F7F8F9"/>
<stop offset="1" stop-color="#D8DCE3"/>
</linearGradient>
<radialGradient id="paint1_radial_1_2" cx="0" cy="0" r="1" gradientUnits="userSpaceOnUse" gradientTransform="translate(33.3688 67.375) rotate(-68.8773) scale(54.0034 53.3831)">
<stop offset="0.361" stop-color="#1D95CF"/>
<stop offset="1" stop-color="#46C582"/>
</radialGradient>
<clipPath id="clip0_1_2">
<rect width="224" height="65" fill="white" transform="translate(29 30)"/>
</clipPath>
</defs>
</svg>
